<svg xmlns="http://www.w3.org/2000/svg" xmlns:xlink="http://www.w3.org/1999/xlink" width="500" zoomAndPan="magnify" viewBox="0 0 375 374.999991" height="500" preserveAspectRatio="xMidYMid meet" version="1.0"><defs><clipPath id="6f37de0322"><path d="M 83.433594 93.742188 L 270.945312 93.742188 L 270.945312 281.257812 L 83.433594 281.257812 Z M 83.433594 93.742188 " clip-rule="nonzero"/></clipPath><clipPath id="b5baaaeef7"><path d="M 177.1875 93.742188 C 125.410156 93.742188 83.433594 135.71875 83.433594 187.5 C 83.433594 239.28125 125.410156 281.257812 177.1875 281.257812 C 228.96875 281.257812 270.945312 239.28125 270.945312 187.5 C 270.945312 135.71875 228.96875 93.742188 177.1875 93.742188 Z M 177.1875 93.742188 " clip-rule="nonzero"/></clipPath></defs><g clip-path="url(#6f37de0322)"><g clip-path="url(#b5baaaeef7)"><path fill="#000000" d="M 83.433594 93.742188 L 270.945312 93.742188 L 270.945312 281.257812 L 83.433594 281.257812 Z M 83.433594 93.742188 " fill-opacity="1" fill-rule="nonzero"/></g></g><path fill="#ffffff" d="M 231.089844 101.859375 C 164.28125 62.578125 79.394531 110.554688 78.65625 188.011719 C 77.933594 263.644531 157.976562 312.496094 224.632812 279.207031 L 151.855469 172.132812 L 151.855469 238.410156 C 151.855469 245.753906 137.804688 245.753906 137.804688 238.410156 L 137.804688 149.5625 C 137.804688 143.734375 148.632812 143.253906 151.699219 148.320312 L 234.652344 273.496094 C 296.964844 233.359375 296.121094 140.097656 231.089844 101.859375 Z M 221.71875 227.289062 L 207.621094 205.757812 L 207.621094 146.816406 C 207.621094 141.316406 221.714844 141.316406 221.714844 146.816406 L 221.714844 227.289062 Z M 221.71875 227.289062 " fill-opacity="1" fill-rule="nonzero"/></svg>