<svg xmlns="http://www.w3.org/2000/svg" xmlns:xlink="http://www.w3.org/1999/xlink" width="500" zoomAndPan="magnify" viewBox="0 0 375 374.999991" height="500" preserveAspectRatio="xMidYMid meet" version="1.0"><defs><clipPath id="e286a204dd"><path d="M 112.5 123 L 262.5 123 L 262.5 251 L 112.5 251 Z M 112.5 123 " clip-rule="nonzero"/></clipPath><clipPath id="8c355ce7e5"><path d="M 112.5 117.273438 L 262.5 117.273438 L 262.5 257.523438 L 112.5 257.523438 Z M 112.5 117.273438 " clip-rule="nonzero"/></clipPath></defs><path fill="#00d8ff" d="M 200.894531 187.273438 C 200.894531 188.152344 200.808594 189.023438 200.636719 189.882812 C 200.464844 190.746094 200.210938 191.582031 199.875 192.394531 C 199.539062 193.203125 199.125 193.976562 198.636719 194.707031 C 198.148438 195.4375 197.59375 196.113281 196.972656 196.734375 C 196.351562 197.355469 195.671875 197.90625 194.941406 198.394531 C 194.210938 198.882812 193.4375 199.296875 192.625 199.632812 C 191.8125 199.96875 190.976562 200.222656 190.113281 200.394531 C 189.25 200.566406 188.378906 200.648438 187.5 200.648438 C 186.621094 200.648438 185.75 200.566406 184.886719 200.394531 C 184.023438 200.222656 183.1875 199.96875 182.375 199.632812 C 181.5625 199.296875 180.789062 198.882812 180.058594 198.394531 C 179.328125 197.90625 178.652344 197.355469 178.03125 196.734375 C 177.40625 196.113281 176.851562 195.4375 176.363281 194.707031 C 175.875 193.976562 175.460938 193.203125 175.125 192.394531 C 174.789062 191.582031 174.535156 190.746094 174.363281 189.882812 C 174.191406 189.023438 174.105469 188.152344 174.105469 187.273438 C 174.105469 186.394531 174.191406 185.527344 174.363281 184.664062 C 174.535156 183.804688 174.789062 182.96875 175.125 182.15625 C 175.460938 181.34375 175.875 180.574219 176.363281 179.84375 C 176.851562 179.113281 177.40625 178.4375 178.03125 177.816406 C 178.652344 177.195312 179.328125 176.640625 180.058594 176.152344 C 180.789062 175.664062 181.5625 175.253906 182.375 174.917969 C 183.1875 174.582031 184.023438 174.328125 184.886719 174.15625 C 185.75 173.984375 186.621094 173.898438 187.5 173.898438 C 188.378906 173.898438 189.25 173.984375 190.113281 174.15625 C 190.976562 174.328125 191.8125 174.582031 192.625 174.917969 C 193.4375 175.253906 194.210938 175.664062 194.941406 176.152344 C 195.671875 176.640625 196.351562 177.195312 196.972656 177.816406 C 197.59375 178.4375 198.148438 179.113281 198.636719 179.84375 C 199.125 180.574219 199.539062 181.34375 199.875 182.15625 C 200.210938 182.96875 200.464844 183.804688 200.636719 184.664062 C 200.808594 185.527344 200.894531 186.394531 200.894531 187.273438 Z M 200.894531 187.273438 " fill-opacity="1" fill-rule="nonzero"/><g clip-path="url(#e286a204dd)"><path stroke-linecap="butt" transform="matrix(0.267, 0, 0, 0.266621, 115.53628, 123.917423)" fill="none" stroke-linejoin="miter" d="M 269.527042 135.625712 C 336.884251 135.625712 399.457402 145.295327 446.639636 161.543209 C 503.477768 181.102201 538.429196 210.770336 538.429196 237.625492 C 538.429196 265.623421 501.400287 297.137573 440.348671 317.355857 C 394.205179 332.651429 333.475427 340.636186 269.527042 340.636186 C 203.98397 340.636186 141.908244 333.13491 95.238066 317.194697 C 36.190782 297.005714 0.624887 265.081336 0.624887 237.625492 C 0.624887 210.9901 33.996259 181.55638 90.029733 162.012039 C 137.387528 145.50044 201.511475 135.625712 269.527042 135.625712 Z M 269.527042 135.625712 " stroke="#00d8ff" stroke-width="24" stroke-opacity="1" stroke-miterlimit="4"/></g><g clip-path="url(#8c355ce7e5)"><path stroke-linecap="butt" transform="matrix(0.267, 0, 0, 0.266621, 115.53628, 123.917423)" fill="none" stroke-linejoin="miter" d="M 180.736662 186.918621 C 214.386007 128.578615 254.019083 79.204978 291.662458 46.445497 C 337.015923 6.97589 380.160235 -8.480842 403.436803 4.93941 C 427.678961 18.916398 436.471681 66.751687 423.494739 129.736038 C 413.692538 177.351563 390.269668 233.948109 358.317421 289.343278 C 325.575146 346.130285 288.078072 396.163214 250.946751 428.600374 C 203.95471 469.681584 158.542725 484.537628 134.754101 470.824357 C 111.682355 457.521312 102.860374 413.905491 113.920768 355.594786 C 123.284064 306.323706 146.765454 245.844664 180.722032 186.933272 Z M 180.736662 186.918621 " stroke="#00d8ff" stroke-width="24" stroke-opacity="1" stroke-miterlimit="4"/><path stroke-linecap="butt" transform="matrix(0.267, 0, 0, 0.266621, 115.53628, 123.917423)" fill="none" stroke-linejoin="miter" d="M 180.824443 289.475136 C 147.072687 231.193734 124.103352 172.194436 114.505974 123.231025 C 102.962785 64.231727 111.126409 19.121511 134.373717 5.657306 C 158.601245 -8.363635 204.422875 7.898898 252.512177 50.606361 C 288.8681 82.882362 326.204242 131.435546 358.22964 186.772112 C 391.074326 243.500515 415.696869 300.976117 425.264987 349.35349 C 437.393381 410.565079 427.57655 457.330849 403.817187 471.088073 C 380.760071 484.435071 338.566719 470.311574 293.579008 431.589164 C 255.569879 398.873636 214.898062 348.342576 180.809813 289.475136 Z M 180.824443 289.475136 " stroke="#00d8ff" stroke-width="24" stroke-opacity="1" stroke-miterlimit="4"/></g></svg>