<svg xmlns="http://www.w3.org/2000/svg" xmlns:xlink="http://www.w3.org/1999/xlink" width="50" zoomAndPan="magnify" viewBox="0 0 375 374.999991" height="50" preserveAspectRatio="xMidYMid meet" version="1.0"><defs><clipPath id="391b1ed044"><path d="M 106 95 L 255.957031 95 L 255.957031 238.636719 L 106 238.636719 Z M 106 95 " clip-rule="nonzero"/></clipPath></defs><g clip-path="url(#391b1ed044)"><path fill="#ff3131" d="M 255.820312 151.867188 C 255.871094 154.078125 255.144531 156.070312 253.65625 157.613281 C 250.152344 161.238281 246.53125 164.746094 242.929688 168.273438 C 236.941406 174.136719 230.933594 179.988281 224.917969 185.832031 C 223.992188 186.734375 223.765625 187.714844 224 188.980469 C 224.964844 194.242188 225.839844 199.523438 226.753906 204.796875 C 227.9375 211.609375 229.089844 218.421875 230.316406 225.226562 C 230.808594 227.949219 231.019531 230.578125 229.773438 233.207031 C 228.324219 236.253906 224.597656 238.367188 221.210938 238.011719 C 218.496094 237.726562 216.246094 236.347656 213.921875 235.152344 C 209.085938 232.667969 204.289062 230.113281 199.480469 227.574219 C 194.046875 224.703125 188.601562 221.832031 183.1875 218.917969 C 181.921875 218.234375 180.804688 218.222656 179.53125 218.90625 C 175.292969 221.175781 171.011719 223.363281 166.757812 225.597656 C 161.945312 228.128906 157.144531 230.679688 152.335938 233.210938 C 149.652344 234.628906 147.050781 236.234375 144.257812 237.375 C 141.046875 238.691406 137.824219 238.320312 135.070312 236.027344 C 132.195312 233.636719 131.324219 230.5 131.957031 226.875 C 133.46875 218.21875 134.972656 209.566406 136.472656 200.910156 C 137.160156 196.957031 137.800781 192.992188 138.523438 189.042969 C 138.777344 187.632812 138.417969 186.613281 137.363281 185.59375 C 132.164062 180.578125 127.042969 175.476562 121.882812 170.414062 C 117.839844 166.449219 113.78125 162.492188 109.71875 158.539062 C 107.109375 156 105.996094 152.96875 107.023438 149.421875 C 108.183594 145.441406 111.0625 143.34375 115.078125 142.753906 C 120.773438 141.921875 126.476562 141.148438 132.175781 140.339844 C 139.109375 139.355469 146.039062 138.351562 152.972656 137.359375 C 154.496094 137.136719 155.394531 136.34375 156.085938 134.867188 C 158.429688 129.871094 161.003906 124.980469 163.445312 120.03125 C 166.835938 113.160156 170.148438 106.253906 173.5625 99.398438 C 175.527344 95.453125 181.597656 93.886719 185.480469 96.042969 C 188.101562 97.496094 189.335938 99.898438 190.554688 102.390625 C 194.144531 109.710938 197.742188 117.03125 201.335938 124.355469 C 203.164062 128.074219 205.027344 131.777344 206.789062 135.523438 C 207.347656 136.707031 208.285156 137.144531 209.414062 137.3125 C 215.0625 138.140625 220.71875 138.925781 226.367188 139.746094 C 232.066406 140.570312 237.757812 141.425781 243.453125 142.257812 C 245.039062 142.492188 246.648438 142.625 248.222656 142.921875 C 253.132812 143.847656 255.824219 147.449219 255.820312 151.867188 Z M 181.460938 125.289062 C 181.292969 125.320312 181.128906 125.351562 180.964844 125.382812 C 180.246094 126.742188 179.5 128.09375 178.816406 129.472656 C 175.699219 135.789062 172.625 142.125 169.492188 148.429688 C 167.941406 151.546875 165.644531 153.765625 161.996094 154.191406 C 160.886719 154.320312 159.785156 154.488281 158.679688 154.644531 C 151.480469 155.664062 144.285156 156.679688 137.089844 157.710938 C 135.976562 157.871094 135.761719 158.460938 136.46875 159.367188 C 136.691406 159.644531 136.941406 159.902344 137.199219 160.152344 C 142.851562 165.667969 148.515625 171.167969 154.152344 176.691406 C 156.851562 179.332031 158.117188 182.457031 157.265625 186.269531 C 157.011719 187.402344 156.847656 188.546875 156.644531 189.691406 C 156.105469 192.675781 155.558594 195.65625 155.042969 198.640625 C 154.332031 202.726562 153.628906 206.8125 152.953125 210.902344 C 152.832031 211.652344 153.191406 212.035156 153.972656 211.765625 C 154.433594 211.609375 154.875 211.378906 155.304688 211.148438 C 157.632812 209.921875 159.949219 208.679688 162.277344 207.453125 C 166.453125 205.25 170.648438 203.085938 174.796875 200.835938 C 178.347656 198.910156 181.871094 197.722656 185.820312 199.851562 C 192.84375 203.632812 199.917969 207.316406 206.984375 211 C 207.660156 211.355469 208.460938 211.464844 209.203125 211.683594 C 209.25 210.875 209.4375 210.039062 209.316406 209.25 C 208.824219 206.125 208.226562 203.015625 207.679688 199.902344 C 207.125 196.738281 206.570312 193.574219 206.035156 190.410156 C 205.664062 188.210938 205.0625 186.011719 205.042969 183.804688 C 205.011719 180.929688 206.460938 178.539062 208.515625 176.539062 C 214.269531 170.933594 220.023438 165.332031 225.746094 159.695312 C 226.105469 159.34375 226.199219 158.726562 226.417969 158.234375 C 225.945312 158.050781 225.488281 157.773438 225.003906 157.699219 C 221.480469 157.191406 217.945312 156.738281 214.417969 156.242188 C 210.269531 155.65625 206.128906 155.039062 201.980469 154.445312 C 199.378906 154.078125 196.800781 153.5 195.039062 151.414062 C 193.941406 150.113281 193.164062 148.511719 192.390625 146.972656 C 189.402344 141.007812 186.476562 135.003906 183.507812 129.027344 C 182.875 127.753906 182.144531 126.53125 181.460938 125.289062 Z M 181.460938 125.289062 " fill-opacity="1" fill-rule="nonzero"/></g></svg>
