<svg xmlns="http://www.w3.org/2000/svg" xmlns:xlink="http://www.w3.org/1999/xlink" width="80" zoomAndPan="magnify" viewBox="0 0 375 374.999991" height="80" preserveAspectRatio="xMidYMid meet" version="1.0"><defs><clipPath id="1523be1035"><path d="M 188.597656 240.453125 L 190.078125 240.453125 L 190.078125 241.675781 L 188.597656 241.675781 Z M 188.597656 240.453125 " clip-rule="nonzero"/></clipPath><clipPath id="7edb17e13b"><path d="M 190.050781 240.898438 C 189.375 241.875 188.773438 241.726562 188.699219 241.5 C 188.550781 241.273438 188.625 240.675781 188.851562 240.523438 C 189.074219 240.375 189.824219 240.601562 189.824219 240.601562 " clip-rule="nonzero"/></clipPath><clipPath id="2aa49be253"><path d="M 121.152344 208.265625 L 125.410156 208.265625 L 125.410156 211.871094 L 121.152344 211.871094 Z M 121.152344 208.265625 " clip-rule="nonzero"/></clipPath><clipPath id="0ba6239f63"><path d="M 125.398438 209.550781 C 123.523438 212.550781 121.726562 212.023438 121.351562 211.351562 C 120.976562 210.75 121.273438 208.875 121.875 208.425781 C 122.476562 207.976562 124.875 208.648438 124.875 208.648438 " clip-rule="nonzero"/></clipPath></defs><g clip-path="url(#1523be1035)"><g clip-path="url(#7edb17e13b)"><path fill="#ff3131" d="M 185.699219 237.523438 L 193.117188 237.523438 L 193.117188 244.800781 L 185.699219 244.800781 Z M 185.699219 237.523438 " fill-opacity="1" fill-rule="nonzero"/></g></g><path fill="#ff3131" d="M 169.554688 168.558594 L 166.195312 168.558594 L 166.195312 165.195312 C 166.195312 164.847656 166.160156 164.507812 166.09375 164.167969 C 166.023438 163.828125 165.921875 163.496094 165.789062 163.175781 C 165.65625 162.855469 165.496094 162.550781 165.304688 162.265625 C 165.109375 161.976562 164.890625 161.710938 164.644531 161.464844 C 164.402344 161.21875 164.136719 161 163.847656 160.808594 C 163.558594 160.613281 163.253906 160.453125 162.933594 160.320312 C 162.613281 160.1875 162.285156 160.085938 161.945312 160.019531 C 161.605469 159.949219 161.261719 159.917969 160.914062 159.914062 L 155.152344 159.914062 C 154.808594 159.917969 154.464844 159.949219 154.125 160.019531 C 153.785156 160.085938 153.453125 160.1875 153.132812 160.320312 C 152.8125 160.453125 152.511719 160.613281 152.222656 160.808594 C 151.933594 161 151.667969 161.21875 151.421875 161.464844 C 151.175781 161.710938 150.957031 161.976562 150.765625 162.265625 C 150.574219 162.550781 150.410156 162.855469 150.277344 163.175781 C 150.144531 163.496094 150.042969 163.828125 149.976562 164.167969 C 149.910156 164.507812 149.875 164.847656 149.875 165.195312 L 149.875 168.558594 L 146.511719 168.558594 C 146.167969 168.558594 145.824219 168.589844 145.484375 168.660156 C 145.144531 168.726562 144.8125 168.828125 144.496094 168.960938 C 144.175781 169.09375 143.871094 169.257812 143.582031 169.449219 C 143.292969 169.640625 143.027344 169.859375 142.78125 170.105469 C 142.539062 170.351562 142.320312 170.617188 142.125 170.90625 C 141.933594 171.191406 141.769531 171.496094 141.636719 171.816406 C 141.503906 172.136719 141.40625 172.46875 141.335938 172.808594 C 141.269531 173.148438 141.234375 173.488281 141.234375 173.835938 L 141.234375 179.597656 C 141.234375 179.945312 141.269531 180.285156 141.335938 180.625 C 141.40625 180.964844 141.503906 181.296875 141.636719 181.617188 C 141.769531 181.9375 141.933594 182.242188 142.125 182.527344 C 142.320312 182.816406 142.539062 183.082031 142.78125 183.328125 C 143.027344 183.574219 143.292969 183.792969 143.582031 183.984375 C 143.871094 184.175781 144.175781 184.339844 144.496094 184.472656 C 144.8125 184.605469 145.144531 184.707031 145.484375 184.773438 C 145.824219 184.84375 146.167969 184.875 146.511719 184.875 L 149.875 184.875 L 149.875 188.238281 C 149.875 188.585938 149.910156 188.925781 149.976562 189.265625 C 150.046875 189.605469 150.144531 189.9375 150.277344 190.257812 C 150.410156 190.578125 150.574219 190.882812 150.765625 191.167969 C 150.957031 191.457031 151.175781 191.722656 151.421875 191.96875 C 151.667969 192.214844 151.933594 192.433594 152.222656 192.625 C 152.511719 192.816406 152.816406 192.980469 153.132812 193.113281 C 153.453125 193.246094 153.785156 193.347656 154.125 193.414062 C 154.464844 193.480469 154.808594 193.515625 155.152344 193.515625 L 160.914062 193.515625 C 161.261719 193.515625 161.605469 193.480469 161.945312 193.414062 C 162.285156 193.347656 162.613281 193.246094 162.933594 193.113281 C 163.253906 192.980469 163.558594 192.816406 163.847656 192.625 C 164.132812 192.433594 164.402344 192.214844 164.644531 191.96875 C 164.890625 191.722656 165.109375 191.457031 165.300781 191.167969 C 165.496094 190.882812 165.65625 190.578125 165.789062 190.257812 C 165.921875 189.9375 166.023438 189.605469 166.089844 189.265625 C 166.160156 188.925781 166.195312 188.585938 166.195312 188.238281 L 166.195312 184.875 L 169.554688 184.875 C 169.902344 184.875 170.246094 184.84375 170.585938 184.773438 C 170.925781 184.707031 171.253906 184.605469 171.574219 184.472656 C 171.894531 184.339844 172.199219 184.175781 172.488281 183.984375 C 172.773438 183.792969 173.042969 183.574219 173.285156 183.328125 C 173.53125 183.082031 173.75 182.816406 173.941406 182.527344 C 174.136719 182.242188 174.296875 181.9375 174.429688 181.617188 C 174.5625 181.296875 174.664062 180.964844 174.730469 180.625 C 174.800781 180.285156 174.835938 179.945312 174.835938 179.597656 L 174.835938 173.835938 C 174.835938 173.488281 174.800781 173.148438 174.730469 172.808594 C 174.664062 172.46875 174.5625 172.136719 174.429688 171.816406 C 174.296875 171.496094 174.136719 171.191406 173.941406 170.90625 C 173.75 170.617188 173.53125 170.351562 173.285156 170.105469 C 173.042969 169.859375 172.773438 169.640625 172.488281 169.449219 C 172.199219 169.257812 171.894531 169.09375 171.574219 168.960938 C 171.253906 168.828125 170.925781 168.726562 170.585938 168.660156 C 170.246094 168.589844 169.902344 168.558594 169.554688 168.558594 Z M 170.035156 179.597656 C 170.035156 179.730469 169.988281 179.84375 169.894531 179.9375 C 169.800781 180.03125 169.6875 180.078125 169.554688 180.078125 L 163.792969 180.078125 C 163.476562 180.078125 163.167969 180.136719 162.875 180.257812 C 162.582031 180.382812 162.320312 180.554688 162.097656 180.78125 C 161.871094 181.003906 161.699219 181.265625 161.578125 181.558594 C 161.453125 181.851562 161.394531 182.160156 161.394531 182.476562 L 161.394531 188.238281 C 161.394531 188.371094 161.347656 188.484375 161.253906 188.578125 C 161.160156 188.671875 161.046875 188.71875 160.914062 188.71875 L 155.152344 188.71875 C 155.023438 188.71875 154.910156 188.671875 154.816406 188.578125 C 154.722656 188.484375 154.675781 188.371094 154.675781 188.238281 L 154.675781 182.476562 C 154.675781 182.160156 154.613281 181.851562 154.492188 181.558594 C 154.371094 181.265625 154.195312 181.003906 153.972656 180.78125 C 153.746094 180.554688 153.488281 180.382812 153.191406 180.257812 C 152.898438 180.136719 152.59375 180.078125 152.273438 180.078125 L 146.511719 180.078125 C 146.382812 180.078125 146.269531 180.03125 146.175781 179.9375 C 146.082031 179.84375 146.035156 179.730469 146.035156 179.597656 L 146.035156 173.835938 C 146.035156 173.703125 146.082031 173.589844 146.175781 173.496094 C 146.269531 173.402344 146.382812 173.355469 146.511719 173.355469 L 152.273438 173.355469 C 152.59375 173.355469 152.898438 173.296875 153.191406 173.175781 C 153.488281 173.050781 153.746094 172.878906 153.972656 172.652344 C 154.195312 172.429688 154.371094 172.167969 154.492188 171.875 C 154.613281 171.582031 154.675781 171.273438 154.675781 170.957031 L 154.675781 165.195312 C 154.675781 165.0625 154.722656 164.949219 154.816406 164.855469 C 154.910156 164.761719 155.019531 164.714844 155.152344 164.714844 L 160.914062 164.714844 C 161.046875 164.714844 161.160156 164.761719 161.253906 164.855469 C 161.347656 164.949219 161.394531 165.0625 161.394531 165.195312 L 161.394531 170.957031 C 161.394531 171.273438 161.453125 171.582031 161.578125 171.875 C 161.699219 172.167969 161.871094 172.429688 162.097656 172.652344 C 162.320312 172.878906 162.582031 173.050781 162.875 173.175781 C 163.167969 173.296875 163.476562 173.355469 163.792969 173.355469 L 169.554688 173.355469 C 169.6875 173.355469 169.800781 173.402344 169.894531 173.496094 C 169.988281 173.589844 170.035156 173.703125 170.035156 173.835938 Z M 170.035156 179.597656 " fill-opacity="1" fill-rule="nonzero"/><path fill="#ff3131" d="M 216.355469 182.574219 C 215.832031 182.566406 215.3125 182.613281 214.796875 182.707031 C 214.28125 182.804688 213.78125 182.949219 213.292969 183.140625 C 212.804688 183.335938 212.34375 183.578125 211.902344 183.859375 C 211.460938 184.144531 211.054688 184.472656 210.679688 184.835938 C 210.300781 185.203125 209.964844 185.601562 209.667969 186.03125 C 209.367188 186.464844 209.113281 186.917969 208.90625 187.398438 C 208.699219 187.882812 208.539062 188.378906 208.425781 188.890625 C 208.316406 189.402344 208.253906 189.921875 208.246094 190.445312 C 208.238281 190.96875 208.277344 191.488281 208.371094 192.003906 C 208.464844 192.523438 208.605469 193.023438 208.796875 193.511719 C 208.988281 194 209.222656 194.464844 209.507812 194.90625 C 209.789062 195.347656 210.109375 195.757812 210.472656 196.136719 C 210.835938 196.515625 211.234375 196.855469 211.664062 197.15625 C 212.089844 197.457031 212.546875 197.714844 213.027344 197.925781 C 213.503906 198.136719 214 198.300781 214.511719 198.414062 C 215.023438 198.527344 215.542969 198.59375 216.066406 198.605469 C 226.609375 198.410156 227.011719 183.023438 216.355469 182.574219 Z M 216.160156 193.804688 C 215.738281 193.796875 215.332031 193.707031 214.945312 193.539062 C 214.558594 193.367188 214.214844 193.132812 213.921875 192.828125 C 213.628906 192.523438 213.402344 192.171875 213.246094 191.78125 C 213.089844 191.386719 213.011719 190.980469 213.015625 190.554688 C 213.023438 190.132812 213.105469 189.726562 213.269531 189.335938 C 213.4375 188.945312 213.667969 188.601562 213.96875 188.304688 C 214.269531 188.007812 214.617188 187.777344 215.007812 187.613281 C 215.398438 187.453125 215.804688 187.371094 216.230469 187.371094 C 216.652344 187.382812 217.058594 187.472656 217.445312 187.640625 C 217.832031 187.8125 218.171875 188.046875 218.464844 188.351562 C 218.761719 188.65625 218.984375 189.003906 219.140625 189.398438 C 219.300781 189.789062 219.375 190.199219 219.371094 190.621094 C 219.367188 191.046875 219.28125 191.453125 219.117188 191.839844 C 218.953125 192.230469 218.71875 192.574219 218.417969 192.871094 C 218.121094 193.171875 217.773438 193.402344 217.382812 193.5625 C 216.992188 193.722656 216.585938 193.804688 216.160156 193.804688 Z M 216.160156 193.804688 " fill-opacity="1" fill-rule="nonzero"/><path fill="#ff3131" d="M 202.507812 168.675781 C 191.886719 168.765625 191.703125 184.511719 202.34375 184.660156 C 202.863281 184.660156 203.378906 184.605469 203.890625 184.503906 C 204.398438 184.402344 204.894531 184.25 205.375 184.050781 C 205.855469 183.851562 206.3125 183.605469 206.742188 183.320312 C 207.175781 183.03125 207.578125 182.703125 207.945312 182.335938 C 208.3125 181.96875 208.644531 181.570312 208.933594 181.140625 C 209.226562 180.710938 209.472656 180.253906 209.675781 179.773438 C 209.875 179.296875 210.03125 178.800781 210.136719 178.292969 C 210.242188 177.785156 210.296875 177.269531 210.304688 176.75 C 210.308594 176.230469 210.265625 175.714844 210.167969 175.203125 C 210.074219 174.691406 209.929688 174.195312 209.738281 173.710938 C 209.546875 173.226562 209.308594 172.769531 209.027344 172.332031 C 208.742188 171.894531 208.421875 171.488281 208.0625 171.113281 C 207.699219 170.742188 207.304688 170.40625 206.878906 170.109375 C 206.453125 169.8125 206 169.558594 205.527344 169.347656 C 205.050781 169.140625 204.558594 168.976562 204.050781 168.863281 C 203.542969 168.75 203.027344 168.6875 202.507812 168.675781 Z M 202.273438 179.859375 C 201.855469 179.839844 201.457031 179.742188 201.078125 179.566406 C 200.699219 179.390625 200.367188 179.152344 200.082031 178.84375 C 199.800781 178.539062 199.582031 178.191406 199.433594 177.800781 C 199.285156 177.410156 199.21875 177.007812 199.230469 176.589844 C 199.238281 176.171875 199.328125 175.769531 199.496094 175.386719 C 199.664062 175.003906 199.898438 174.667969 200.195312 174.378906 C 200.496094 174.085938 200.839844 173.863281 201.226562 173.707031 C 201.613281 173.550781 202.015625 173.472656 202.433594 173.476562 C 202.863281 173.476562 203.277344 173.5625 203.671875 173.730469 C 204.066406 173.898438 204.414062 174.136719 204.714844 174.445312 C 205.011719 174.753906 205.238281 175.105469 205.394531 175.507812 C 205.554688 175.90625 205.625 176.320312 205.613281 176.75 C 205.605469 177.179688 205.511719 177.589844 205.332031 177.980469 C 205.15625 178.375 204.910156 178.714844 204.597656 179.007812 C 204.28125 179.300781 203.925781 179.519531 203.519531 179.667969 C 203.117188 179.816406 202.703125 179.878906 202.273438 179.859375 Z M 202.273438 179.859375 " fill-opacity="1" fill-rule="nonzero"/><path fill="#ff3131" d="M 230.183594 168.675781 C 219.578125 168.945312 219.34375 184.410156 230.070312 184.660156 C 240.605469 184.488281 240.609375 169.019531 230.183594 168.675781 Z M 229.992188 179.859375 C 229.574219 179.847656 229.167969 179.757812 228.785156 179.589844 C 228.398438 179.417969 228.0625 179.179688 227.769531 178.875 C 227.476562 178.570312 227.253906 178.222656 227.101562 177.832031 C 226.949219 177.4375 226.875 177.03125 226.882812 176.609375 C 226.890625 176.191406 226.976562 175.785156 227.144531 175.398438 C 227.3125 175.011719 227.546875 174.671875 227.847656 174.378906 C 228.152344 174.085938 228.496094 173.859375 228.890625 173.703125 C 229.28125 173.546875 229.6875 173.472656 230.105469 173.476562 C 230.527344 173.488281 230.929688 173.578125 231.316406 173.746094 C 231.703125 173.917969 232.039062 174.15625 232.332031 174.460938 C 232.621094 174.761719 232.84375 175.113281 233 175.503906 C 233.152344 175.894531 233.222656 176.304688 233.21875 176.722656 C 233.210938 177.144531 233.121094 177.550781 232.953125 177.9375 C 232.789062 178.320312 232.554688 178.664062 232.25 178.957031 C 231.949219 179.25 231.601562 179.476562 231.210938 179.632812 C 230.820312 179.789062 230.414062 179.863281 229.992188 179.859375 Z M 229.992188 179.859375 " fill-opacity="1" fill-rule="nonzero"/><path fill="#ff3131" d="M 216.132812 170.90625 C 216.65625 170.90625 217.175781 170.855469 217.691406 170.75 C 218.207031 170.648438 218.707031 170.496094 219.191406 170.296875 C 219.675781 170.097656 220.136719 169.851562 220.574219 169.5625 C 221.007812 169.269531 221.414062 168.941406 221.785156 168.574219 C 222.160156 168.203125 222.492188 167.800781 222.785156 167.367188 C 223.082031 166.933594 223.332031 166.476562 223.535156 165.992188 C 223.742188 165.511719 223.898438 165.011719 224.003906 164.5 C 224.113281 163.984375 224.167969 163.464844 224.175781 162.941406 C 224.183594 162.417969 224.136719 161.898438 224.042969 161.382812 C 223.949219 160.867188 223.804688 160.363281 223.613281 159.875 C 223.417969 159.390625 223.179688 158.925781 222.898438 158.484375 C 222.613281 158.042969 222.289062 157.632812 221.925781 157.253906 C 221.5625 156.875 221.167969 156.535156 220.738281 156.234375 C 220.308594 155.933594 219.855469 155.679688 219.375 155.464844 C 218.894531 155.253906 218.398438 155.089844 217.886719 154.972656 C 217.375 154.859375 216.859375 154.792969 216.332031 154.78125 C 215.808594 154.78125 215.289062 154.832031 214.777344 154.9375 C 214.261719 155.039062 213.761719 155.191406 213.277344 155.390625 C 212.792969 155.589844 212.332031 155.835938 211.894531 156.125 C 211.457031 156.414062 211.054688 156.746094 210.679688 157.113281 C 210.308594 157.484375 209.976562 157.886719 209.679688 158.320312 C 209.386719 158.753906 209.136719 159.210938 208.933594 159.695312 C 208.726562 160.175781 208.570312 160.675781 208.460938 161.1875 C 208.355469 161.703125 208.296875 162.21875 208.292969 162.746094 C 208.285156 163.269531 208.328125 163.789062 208.425781 164.304688 C 208.519531 164.820312 208.664062 165.324219 208.855469 165.808594 C 209.046875 166.296875 209.285156 166.761719 209.570312 167.203125 C 209.851562 167.644531 210.175781 168.054688 210.539062 168.433594 C 210.902344 168.8125 211.300781 169.152344 211.730469 169.453125 C 212.160156 169.753906 212.613281 170.007812 213.09375 170.222656 C 213.574219 170.433594 214.066406 170.597656 214.578125 170.710938 C 215.089844 170.828125 215.609375 170.894531 216.132812 170.90625 Z M 213.988281 160.539062 C 214.457031 160.09375 215.007812 159.8125 215.640625 159.695312 C 216.277344 159.582031 216.890625 159.648438 217.484375 159.898438 C 218.082031 160.148438 218.558594 160.542969 218.917969 161.078125 C 219.277344 161.617188 219.457031 162.207031 219.464844 162.851562 C 219.445312 163.277344 219.351562 163.6875 219.183594 164.078125 C 219.011719 164.46875 218.777344 164.8125 218.472656 165.117188 C 218.171875 165.417969 217.828125 165.652344 217.4375 165.824219 C 217.046875 165.996094 216.636719 166.089844 216.210938 166.109375 C 215.558594 166.09375 214.964844 165.898438 214.429688 165.527344 C 213.890625 165.15625 213.503906 164.664062 213.261719 164.058594 C 213.019531 163.453125 212.964844 162.828125 213.097656 162.191406 C 213.230469 161.550781 213.527344 161 213.988281 160.539062 Z M 213.988281 160.539062 " fill-opacity="1" fill-rule="nonzero"/><path fill="#ff3131" d="M 253.386719 219.339844 C 257.09375 205.503906 255.246094 193.335938 251.304688 176.570312 C 247.382812 159.660156 236.285156 136.304688 214.324219 140.753906 C 203.757812 142.332031 191.191406 147.941406 181.097656 145.0625 C 175.332031 143.605469 169.519531 142.398438 163.789062 141.15625 C 131.085938 134.003906 122.242188 178.097656 120.917969 204.605469 C 120.101562 222.347656 129.144531 237.050781 148.222656 226.753906 C 154.011719 223.5 159.300781 219.578125 164.09375 214.980469 C 167.238281 211.875 170.929688 209.699219 175.171875 208.453125 C 187.742188 205.292969 202.503906 205.660156 212.796875 215.492188 C 222.445312 225.21875 245.714844 240.6875 253.386719 219.339844 Z M 235.285156 224.589844 C 220.78125 220.226562 213.203125 204.78125 198.507812 202.890625 C 185.167969 200.792969 171.289062 201.554688 160.835938 211.457031 C 156.34375 215.769531 151.382812 219.460938 145.960938 222.519531 C 112.558594 239.640625 128.945312 171.59375 135.699219 161.023438 C 147.0625 139.0625 159.722656 145.082031 179.914062 149.714844 C 186.675781 151.738281 195.714844 150.222656 203.429688 148.074219 C 215.792969 144.707031 227.757812 142.035156 236.40625 154.253906 C 247.34375 165.890625 262.554688 232.761719 235.285156 224.589844 Z M 235.285156 224.589844 " fill-opacity="1" fill-rule="nonzero"/><g clip-path="url(#2aa49be253)"><g clip-path="url(#0ba6239f63)"><path fill="#ff3131" d="M 118.351562 205.425781 L 128.480469 205.425781 L 128.480469 215.25 L 118.351562 215.25 Z M 118.351562 205.425781 " fill-opacity="1" fill-rule="nonzero"/></g></g></svg>
