<svg xmlns="http://www.w3.org/2000/svg" xmlns:xlink="http://www.w3.org/1999/xlink" width="100" zoomAndPan="magnify" viewBox="0 0 375 374.999991" height="100" preserveAspectRatio="xMidYMid meet" version="1.0"><defs><clipPath id="996c63375f">
<path d="M 169.3125 143.082031 L 205.6875 143.082031 L 205.6875 152.664062 L 169.3125 152.664062 Z M 169.3125 143.082031 " clip-rule="nonzero"/></clipPath><clipPath id="11b548d85c"><path d="M 183 112.5 L 192 112.5 L 192 123 L 183 123 Z M 183 112.5 " clip-rule="nonzero"/></clipPath><clipPath id="226275acf8"><path d="M 181.132812 150.746094 L 193.847656 150.746094 L 193.847656 262.460938 L 181.132812 262.460938 Z M 181.132812 150.746094 " clip-rule="nonzero"/></clipPath><clipPath id="7534ec7066"><path d="M 188.597656 240.453125 L 190.078125 240.453125 L 190.078125 241.675781 L 188.597656 241.675781 Z M 188.597656 240.453125 " clip-rule="nonzero"/></clipPath><clipPath id="b6c87b2031"><path d="M 190.050781 240.898438 C 189.375 241.875 188.773438 241.726562 188.699219 241.5 C 188.550781 241.273438 188.625 240.675781 188.851562 240.523438 C 189.074219 240.375 189.824219 240.601562 189.824219 240.601562 " clip-rule="nonzero"/></clipPath></defs><g clip-path="url(#996c63375f)"><path fill="#ff3131" d="M 205.6875 143.847656 C 205.6875 143.847656 204.390625 146.742188 199.898438 146.878906 C 195.40625 147.015625 191.535156 145.4375 187.5 152.617188 C 183.464844 145.4375 179.59375 147.015625 175.101562 146.878906 C 170.609375 146.742188 169.3125 143.847656 169.3125 143.847656 C 173.203125 144.59375 179.15625 143.101562 182.640625 143.101562 C 186.121094 143.101562 187.5 144.59375 187.5 144.59375 C 187.5 144.59375 188.878906 143.101562 192.359375 143.101562 C 195.839844 143.101562 201.796875 144.59375 205.6875 143.847656 " fill-opacity="1" fill-rule="nonzero"/></g><g clip-path="url(#11b548d85c)"><path fill="#ff3131" d="M 191.886719 114.097656 L 189.695312 122.003906 L 185.304688 122.003906 L 183.113281 114.097656 C 184.925781 112.574219 187.5 112.539062 187.5 112.539062 C 187.5 112.539062 190.074219 112.574219 191.886719 114.097656 " fill-opacity="1" fill-rule="nonzero"/></g><path fill="#ff3131" d="M 189.894531 141.371094 L 185.105469 141.371094 L 185.105469 123.058594 L 189.894531 123.058594 L 189.894531 141.371094 " fill-opacity="1" fill-rule="nonzero"/><g clip-path="url(#226275acf8)"><path fill="#ff3131" d="M 193.808594 156.167969 L 191.886719 247.449219 C 191.886719 247.449219 189.859375 252.34375 187.5 262.460938 C 185.144531 252.34375 183.113281 247.449219 183.113281 247.449219 L 181.1875 156.167969 C 183.039062 153.410156 183.726562 150.800781 183.726562 150.800781 C 185.648438 152.144531 186.300781 153.957031 186.300781 153.957031 L 187.5 237.113281 L 188.695312 153.957031 C 188.695312 153.957031 189.347656 152.144531 191.269531 150.800781 C 191.269531 150.800781 191.960938 153.410156 193.808594 156.167969 " fill-opacity="1" fill-rule="nonzero"/></g><g clip-path="url(#7534ec7066)"><g clip-path="url(#b6c87b2031)"><path fill="#ff3131" d="M 185.699219 237.523438 L 193.117188 237.523438 L 193.117188 244.800781 L 185.699219 244.800781 Z M 185.699219 237.523438 " fill-opacity="1" fill-rule="nonzero"/></g></g></svg>
