<svg width="60" height="60" viewBox="0 0 362 181" fill="none" xmlns="http://www.w3.org/2000/svg" xmlns:xlink="http://www.w3.org/1999/xlink" zoomAndPan="magnify" preserveAspectRatio="xMidYMid meet" version="1.0">
<defs><clipPath id="06c6c24d1e"><path d="M 129.664062 173.726562 L 133.964844 173.726562 L 133.964844 177.371094 L 129.664062 177.371094 Z M 129.664062 173.726562 " clip-rule="nonzero"/></clipPath><clipPath id="78376ce60f"><path d="M 133.949219 175.050781 C 132 178.050781 130.199219 177.523438 129.824219 176.851562 C 129.449219 176.25 129.824219 174.375 130.351562 173.925781 C 130.949219 173.476562 133.351562 174.074219 133.351562 174.074219 " clip-rule="nonzero"/></clipPath></defs><path fill="#ff3131" d="M 150.527344 225.210938 C 148.308594 225.210938 146.832031 224.472656 145.351562 222.992188 L 115.773438 193.414062 C 112.816406 190.457031 112.816406 186.019531 115.773438 183.0625 L 145.351562 153.484375 C 148.308594 150.527344 152.746094 150.527344 155.703125 153.484375 C 158.660156 156.445312 158.660156 160.878906 155.703125 163.839844 L 131.304688 188.238281 L 155.703125 212.640625 C 158.660156 215.597656 158.660156 220.035156 155.703125 222.992188 C 154.226562 224.472656 152.746094 225.210938 150.527344 225.210938 Z M 150.527344 225.210938 " fill-opacity="1" fill-rule="nonzero"/><path fill="#ff3131" d="M 224.472656 225.210938 C 222.253906 225.210938 220.773438 224.472656 219.296875 222.992188 C 216.339844 220.035156 216.339844 215.597656 219.296875 212.640625 L 243.695312 188.238281 L 219.296875 163.839844 C 216.339844 160.878906 216.339844 156.445312 219.296875 153.484375 C 222.253906 150.527344 226.691406 150.527344 229.648438 153.484375 L 259.226562 183.0625 C 262.183594 186.019531 262.183594 190.457031 259.226562 193.414062 L 229.648438 222.992188 C 228.167969 224.472656 226.691406 225.210938 224.472656 225.210938 Z M 224.472656 225.210938 " fill-opacity="1" fill-rule="nonzero"/><path fill="#ff3131" d="M 172.710938 240 C 171.972656 240 171.230469 240 170.492188 239.261719 C 166.796875 237.78125 164.578125 234.085938 166.054688 229.648438 L 195.632812 140.914062 C 197.113281 137.21875 200.808594 135 205.246094 136.480469 C 208.945312 137.957031 211.160156 141.65625 209.683594 146.089844 L 180.105469 234.824219 C 178.625 237.78125 175.667969 240 172.710938 240 Z M 172.710938 240 " fill-opacity="1" fill-rule="nonzero"/><g clip-path="url(#06c6c24d1e)"><g clip-path="url(#78376ce60f)"><path fill="#e7191f" d="M 126.824219 170.925781 L 136.957031 170.925781 L 136.957031 180.75 L 126.824219 180.75 Z M 126.824219 170.925781 " fill-opacity="1" fill-rule="nonzero"/></g></g></svg>
