<svg xmlns="http://www.w3.org/2000/svg" xmlns:xlink="http://www.w3.org/1999/xlink" width="70" zoomAndPan="magnify" viewBox="0 0 375 374.999991" height="70" preserveAspectRatio="xMidYMid meet" version="1.0"><defs><clipPath id="e4b0ce5746"><path d="M 120.515625 112.5 L 252 112.5 L 252 262.5 L 120.515625 262.5 Z M 120.515625 112.5 " clip-rule="nonzero"/></clipPath></defs><g clip-path="url(#e4b0ce5746)"><path fill="#ff3131" d="M 183.023438 112.5 L 189.347656 112.5 C 190.324219 112.65625 191.304688 112.734375 192.285156 112.738281 C 193.011719 112.742188 193.644531 112.898438 194.359375 112.976562 C 214.003906 115.054688 231.636719 126.566406 242.136719 143.171875 C 251.925781 158.660156 254.398438 178.003906 248.503906 195.53125 C 248.382812 195.902344 248.347656 196.164062 248.410156 196.316406 C 250.03125 200.449219 250.578125 204.683594 250.050781 209.015625 C 248.878906 218.628906 242.238281 227.738281 233.691406 232.152344 C 229.496094 234.324219 224.875 235.328125 219.832031 235.164062 C 218.90625 235.132812 218.15625 235.46875 217.578125 236.167969 C 216.996094 236.875 217.097656 238.148438 217.484375 238.878906 C 218.777344 241.339844 219.546875 243.527344 219.300781 246.308594 C 218.988281 249.84375 217.40625 252.78125 214.554688 255.117188 C 210.070312 258.796875 203.675781 258.933594 199.191406 255.140625 C 198.699219 254.722656 198.226562 254.300781 197.785156 253.871094 C 197.722656 253.816406 197.652344 253.796875 197.570312 253.8125 C 197.492188 253.832031 197.4375 253.878906 197.40625 253.957031 C 195.476562 259.140625 190.984375 262.492188 185.453125 262.25 C 180.308594 262.023438 176.210938 258.808594 174.527344 253.953125 C 174.5 253.867188 174.4375 253.816406 174.347656 253.796875 C 174.257812 253.777344 174.183594 253.804688 174.121094 253.871094 C 169.351562 259.050781 161.601562 259.296875 156.519531 254.359375 C 153.851562 251.761719 152.363281 248.089844 152.671875 244.351562 C 152.753906 243.367188 152.933594 242.492188 153.214844 241.722656 C 153.386719 241.242188 153.785156 240.351562 154.40625 239.054688 C 154.6875 238.464844 154.820312 237.957031 154.804688 237.535156 C 154.71875 235.007812 152.105469 235.191406 150.261719 235.152344 C 146.164062 235.0625 142.214844 234.15625 138.667969 232.28125 C 132.523438 229.042969 127.878906 224.238281 124.738281 217.871094 C 122.167969 212.65625 121.21875 206.3125 122.453125 200.550781 C 122.734375 199.238281 123.113281 197.949219 123.585938 196.6875 C 123.722656 196.320312 123.769531 196.074219 123.726562 195.941406 C 122.742188 192.835938 121.972656 189.679688 121.421875 186.472656 C 121.042969 184.269531 120.839844 181.757812 120.59375 179.386719 L 120.59375 173.167969 C 120.839844 171.976562 120.839844 170.519531 120.945312 169.597656 C 122.054688 160.148438 125.09375 151.40625 130.0625 143.367188 C 139.578125 127.964844 155.136719 117.140625 172.960938 113.710938 C 173.785156 113.550781 175.023438 113.34375 176.671875 113.089844 C 176.839844 113.0625 177.277344 113.023438 177.988281 112.976562 C 178.589844 112.933594 179.152344 112.753906 179.738281 112.75 C 180.835938 112.734375 181.929688 112.652344 183.023438 112.5 Z M 239.796875 195.417969 C 243.664062 186.113281 244.421875 175.675781 242.511719 165.828125 C 239.308594 149.316406 228.542969 135.160156 213.707031 127.328125 C 203.3125 121.84375 192.21875 119.640625 180.421875 120.726562 C 154.917969 123.078125 133.503906 142.050781 129.453125 167.601562 C 127.941406 177.132812 128.925781 186.433594 132.40625 195.5 C 132.433594 195.574219 132.429688 195.648438 132.386719 195.71875 C 130.242188 199.210938 129.277344 202.875 129.492188 206.714844 C 129.71875 210.8125 131.105469 214.648438 133.652344 218.21875 C 137.148438 223.121094 142.542969 226.714844 148.574219 227.503906 C 149.34375 227.605469 150.859375 227.6875 153.117188 227.75 C 155.203125 227.804688 157.179688 228.582031 159.042969 230.074219 C 161.671875 232.1875 163.160156 235.617188 162.277344 238.976562 C 161.863281 240.550781 160.644531 241.789062 160.242188 243.316406 C 160.035156 244.101562 159.953125 244.898438 159.996094 245.710938 C 160.175781 249.042969 163.210938 251.601562 166.523438 250.671875 C 167.949219 250.273438 168.960938 249.351562 169.558594 247.902344 C 169.996094 246.855469 170.226562 246.308594 170.253906 246.261719 C 171.742188 243.726562 174.679688 242.679688 177.417969 243.742188 C 179.492188 244.546875 181.007812 246.542969 181.058594 248.890625 C 181.085938 250.007812 180.972656 251.066406 181.402344 252.070312 C 183.183594 256.214844 188.824219 256.367188 190.632812 252.128906 C 190.8125 251.710938 190.902344 251.191406 190.898438 250.570312 C 190.890625 248.660156 190.910156 247.128906 192 245.703125 C 194.535156 242.375 199.535156 242.546875 201.765625 246.132812 C 202.167969 246.773438 202.375 247.761719 202.714844 248.328125 C 204.277344 250.9375 207.234375 251.597656 209.726562 249.984375 C 212.011719 248.507812 212.621094 245.375 211.660156 242.914062 C 211.605469 242.769531 211.253906 242.140625 210.613281 241.03125 C 209.523438 239.140625 209.214844 237.171875 209.691406 235.132812 C 210.570312 231.355469 213.820312 228.667969 217.597656 227.9375 C 218.09375 227.839844 219.03125 227.78125 220.402344 227.765625 C 221.839844 227.746094 223.261719 227.609375 224.671875 227.34375 C 232.167969 225.949219 238.394531 220.359375 241.238281 213.414062 C 243.28125 208.421875 243.257812 203.375 241.167969 198.273438 C 240.828125 197.453125 240.234375 196.523438 239.804688 195.636719 C 239.769531 195.566406 239.765625 195.492188 239.796875 195.417969 Z M 239.796875 195.417969 " fill-opacity="1" fill-rule="nonzero"/></g><path fill="#ff3131" d="M 173.734375 190.347656 C 175.558594 193.078125 176.613281 196.042969 176.902344 199.246094 C 177.039062 200.800781 176.953125 202.386719 176.644531 204.007812 C 175.648438 209.207031 172.972656 213.265625 168.609375 216.183594 C 163.074219 219.886719 155.996094 220.246094 150.207031 216.859375 C 145.433594 214.066406 142.425781 209.832031 141.183594 204.152344 C 140.992188 203.265625 140.894531 202.164062 140.898438 200.851562 C 140.90625 194.9375 143.730469 189.464844 148.328125 185.851562 C 150.90625 183.824219 153.917969 182.667969 157.359375 182.378906 C 162.574219 181.941406 167.082031 183.496094 170.882812 187.035156 C 172.003906 188.078125 172.953125 189.183594 173.734375 190.347656 Z M 173.734375 190.347656 " fill-opacity="1" fill-rule="nonzero"/><path fill="#ff3131" d="M 213.089844 219.171875 C 212.496094 219.164062 211.910156 219.125 211.320312 219.054688 C 210.734375 218.988281 210.152344 218.890625 209.574219 218.761719 C 208.996094 218.636719 208.425781 218.480469 207.863281 218.296875 C 207.300781 218.109375 206.746094 217.898438 206.203125 217.660156 C 205.660156 217.417969 205.132812 217.152344 204.613281 216.859375 C 204.097656 216.566406 203.597656 216.25 203.109375 215.90625 C 202.625 215.5625 202.15625 215.195312 201.703125 214.804688 C 201.253906 214.414062 200.824219 214.003906 200.410156 213.570312 C 200 213.136719 199.609375 212.683594 199.242188 212.210938 C 198.875 211.738281 198.53125 211.246094 198.210938 210.738281 C 197.890625 210.230469 197.59375 209.710938 197.324219 209.171875 C 197.054688 208.636719 196.808594 208.085938 196.59375 207.523438 C 196.375 206.960938 196.183594 206.390625 196.023438 205.8125 C 195.859375 205.230469 195.726562 204.640625 195.621094 204.046875 C 195.515625 203.453125 195.4375 202.855469 195.386719 202.253906 C 195.339844 201.652344 195.320312 201.046875 195.328125 200.445312 C 195.339844 199.839844 195.378906 199.238281 195.445312 198.636719 C 195.511719 198.039062 195.609375 197.441406 195.734375 196.851562 C 195.859375 196.261719 196.011719 195.679688 196.191406 195.101562 C 196.371094 194.527344 196.578125 193.960938 196.8125 193.410156 C 197.050781 192.855469 197.308594 192.3125 197.597656 191.785156 C 197.882812 191.253906 198.195312 190.742188 198.53125 190.246094 C 198.867188 189.75 199.226562 189.269531 199.609375 188.808594 C 199.992188 188.347656 200.394531 187.90625 200.820312 187.484375 C 201.246094 187.066406 201.6875 186.667969 202.152344 186.292969 C 202.617188 185.914062 203.09375 185.5625 203.59375 185.234375 C 204.089844 184.90625 204.601562 184.605469 205.125 184.328125 C 205.652344 184.050781 206.191406 183.800781 206.738281 183.582031 C 207.289062 183.359375 207.847656 183.164062 208.417969 182.996094 C 208.984375 182.832031 209.558594 182.691406 210.140625 182.582031 C 210.722656 182.476562 211.308594 182.394531 211.898438 182.347656 C 212.488281 182.296875 213.078125 182.277344 213.667969 182.285156 C 214.257812 182.292969 214.847656 182.332031 215.4375 182.402344 C 216.023438 182.46875 216.605469 182.566406 217.183594 182.695312 C 217.761719 182.820312 218.332031 182.976562 218.894531 183.160156 C 219.457031 183.34375 220.011719 183.558594 220.554688 183.796875 C 221.097656 184.035156 221.625 184.304688 222.140625 184.597656 C 222.660156 184.890625 223.160156 185.207031 223.648438 185.550781 C 224.132812 185.894531 224.601562 186.261719 225.050781 186.652344 C 225.503906 187.042969 225.933594 187.453125 226.347656 187.886719 C 226.757812 188.320312 227.148438 188.773438 227.515625 189.246094 C 227.882812 189.71875 228.226562 190.210938 228.546875 190.71875 C 228.867188 191.226562 229.164062 191.746094 229.433594 192.285156 C 229.703125 192.820312 229.945312 193.371094 230.164062 193.933594 C 230.382812 194.492188 230.570312 195.066406 230.734375 195.644531 C 230.898438 196.226562 231.03125 196.8125 231.136719 197.40625 C 231.242188 198.003906 231.320312 198.601562 231.367188 199.203125 C 231.417969 199.804688 231.4375 200.40625 231.425781 201.011719 C 231.417969 201.617188 231.378906 202.21875 231.3125 202.816406 C 231.246094 203.417969 231.148438 204.015625 231.023438 204.605469 C 230.898438 205.195312 230.746094 205.777344 230.566406 206.351562 C 230.386719 206.929688 230.175781 207.492188 229.941406 208.046875 C 229.707031 208.601562 229.445312 209.144531 229.160156 209.671875 C 228.871094 210.199219 228.5625 210.714844 228.226562 211.210938 C 227.886719 211.707031 227.527344 212.1875 227.148438 212.648438 C 226.765625 213.109375 226.359375 213.550781 225.9375 213.96875 C 225.511719 214.390625 225.066406 214.789062 224.605469 215.164062 C 224.140625 215.542969 223.660156 215.894531 223.164062 216.222656 C 222.667969 216.546875 222.15625 216.851562 221.632812 217.128906 C 221.105469 217.402344 220.566406 217.652344 220.019531 217.875 C 219.46875 218.097656 218.910156 218.292969 218.339844 218.460938 C 217.773438 218.625 217.195312 218.765625 216.617188 218.871094 C 216.035156 218.980469 215.449219 219.0625 214.859375 219.109375 C 214.269531 219.160156 213.679688 219.179688 213.089844 219.171875 Z M 213.089844 219.171875 " fill-opacity="1" fill-rule="nonzero"/><path fill="#ff3131" d="M 186.347656 227.476562 C 186.296875 227.402344 186.230469 227.371094 186.144531 227.375 C 186.054688 227.378906 185.992188 227.421875 185.953125 227.503906 C 184.980469 229.535156 183.136719 231.355469 180.664062 230.953125 C 178.128906 230.539062 176.570312 227.71875 177.265625 225.363281 C 177.449219 224.75 177.84375 223.949219 178.445312 222.960938 C 180.96875 218.816406 182.699219 216.027344 183.632812 214.585938 C 184.828125 212.753906 187.394531 212.839844 188.570312 214.660156 C 190.964844 218.371094 192.890625 221.46875 194.34375 223.945312 C 194.609375 224.398438 194.832031 224.917969 195.003906 225.503906 C 195.53125 227.304688 194.664062 229.242188 193.183594 230.253906 C 190.839844 231.847656 188.019531 230.652344 186.785156 228.246094 C 186.644531 227.96875 186.496094 227.710938 186.347656 227.476562 Z M 186.347656 227.476562 " fill-opacity="1" fill-rule="nonzero"/></svg>
